<svg width="256" height="256" viewBox="0 0 256 256" fill="none" xmlns="http://www.w3.org/2000/svg">
<rect width="256" height="256" fill="url(#paint0_linear_1_16)"/>
<path d="M73.2959 136.457C73.2959 142.796 78.1005 152.249 84.241 152.87C89.3975 178.968 106.426 200.462 128 200.772C149.416 201.076 166.904 178.968 171.766 152.863C177.892 152.234 182.682 142.781 182.682 136.45M76.5782 149.936C76.5782 149.936 62.5162 154.988 49 173.526L77.7273 193.546L70.5455 208H185.455L178.273 193.546L207 173.533C193.484 154.996 179.422 149.944 179.422 149.944M78.8333 97.8784C60.6705 102.518 49 109.644 49 117.659C49 131.63 84.3705 142.955 128 142.955C171.63 142.955 207 131.63 207 117.659C207 109.63 195.286 102.497 177.081 97.8567M97.6223 145.614C97.3997 152.978 102.405 160.278 111.376 160.827C117.703 161.217 124.956 158.008 124.956 149.011C124.956 142.766 120.085 143.065 111.373 142.393C102.661 141.721 97.7947 139.904 97.6223 145.614ZM158.38 145.614C158.603 152.978 153.597 160.278 144.627 160.827C138.3 161.217 131.046 158.008 131.046 149.011C131.046 142.766 135.915 143.065 144.627 142.393C153.339 141.721 158.208 139.904 158.38 145.614ZM149.106 49C144.294 49 136.832 52.6136 127.999 52.6136C119.165 52.6136 111.84 49 106.891 49C91.2064 49 83.5937 80.0409 77.7261 102.026C77.7261 113.597 107.351 114.045 127.999 114.045C148.647 114.045 178.272 114.045 178.272 102.033C171.542 78.7906 164.791 49 149.106 49Z" stroke="white" stroke-width="8" stroke-miterlimit="10" stroke-linecap="round"/>
<defs>
<linearGradient id="paint0_linear_1_16" x1="0" y1="0" x2="128" y2="256" gradientUnits="userSpaceOnUse">
<stop stop-color="#DB4E66"/>
<stop offset="0.395679" stop-color="#A24688"/>
<stop offset="1" stop-color="#4E3ABA"/>
</linearGradient>
</defs>
</svg>
